<?xml version="1.0" encoding="UTF-8" standalone="no"?><!DOCTYPE svg PUBLIC "-//W3C//DTD SVG 1.1//EN" "http://www.w3.org/Graphics/SVG/1.1/DTD/svg11.dtd"><svg width="100%" height="100%" viewBox="0 0 2051 1148" version="1.1" xmlns="http://www.w3.org/2000/svg" xmlns:xlink="http://www.w3.org/1999/xlink" xml:space="preserve" xmlns:serif="http://www.serif.com/" style="fill-rule:evenodd;clip-rule:evenodd;stroke-linejoin:round;stroke-miterlimit:1.41421;"><path d="M1.746,54.19c7.859,-0.042 16.238,0.312 22.334,0.958c9.4,1.158 13.833,7.096 16.312,19.746c2.925,20.008 7.292,55.575 12.45,97.521c3.304,26.895 10.979,93.07 12.15,106.341c1.05,16.075 -1.412,22.396 -11.166,25.909c-4.846,1.983 -11.171,3.22 -19.663,5.658c-1.658,1.592 -0.137,10.2 1.404,11.471c8.209,-1.009 25.821,-4.559 61.842,-8.992c31.462,-3.862 53.062,-5.129 63.092,-6.367c1.65,-1.666 1.437,-10.891 -1.017,-11.983c-11.104,-0.025 -16.233,-0.321 -23.696,-0.787c-10.371,-1.509 -13.608,-5.271 -16.029,-21.175c-3.375,-19.95 -7.858,-56.425 -11.225,-83.784c-0.104,-0.916 0.583,-2.846 1.492,-2.958c3.191,-0.396 13.162,-2.083 16.87,-2.075c5.925,-0.725 9.963,2.017 13.83,7.096c18.47,22.258 50.12,65.112 70.025,83.958c5.295,5.367 14.45,12.108 24.075,15.092c18.8,6.096 59.55,2.479 83.891,-2.829c1.254,-1.084 1.492,-10.446 0.867,-11.759c-23.133,0.071 -27.4,-0.796 -46.804,-15.537c-26.054,-19.934 -74.317,-77.413 -87.154,-95.271c-0.571,-0.858 -0.792,-2.683 0.062,-3.25c27.325,-14.929 48.742,-40.242 44.313,-76.263c-5.046,-41.037 -36.73,-65.375 -90.538,-58.758c-28.721,3.529 -51.862,7.304 -81.042,10.888c-15.504,1.908 -46.679,4.345 -57.62,5.695c-1.255,1.075 -1.105,9.855 0.945,11.455m105.825,-8.846c40.584,-4.984 65.43,20.191 70.255,59.404c3.808,31.004 -5.963,45.629 -17.546,53.071c-8.559,5.675 -29.875,9.225 -51.875,11.004c-0.913,0.112 -2.5,-1.546 -2.667,-2.913c-7.625,-62.008 -12.275,-99.85 -12.596,-109.995c-0.229,-1.825 0.634,-6.096 1.892,-7.18c4.387,-1.925 9.346,-2.995 12.537,-3.391m367.8,172.787c-15.004,15.438 -31.016,21.279 -48.837,23.154c-19.188,2.021 -35.346,-2.287 -48.571,-13.829c-11.754,-10.766 -19.525,-27.504 -21.425,-41.162c-0.233,-2.284 -0.017,-4.617 1.35,-4.763c32.7,-5.287 98.1,-15.871 112.654,-22.479c1.321,-0.6 2.375,-8.104 1.779,-9.429c-3.295,-0.575 -6.283,-2.571 -6.929,-4.35c-6.296,-24.742 -27.337,-62.254 -74.396,-57.296c-15.987,1.679 -35.97,9.325 -49.579,20.458c-22.629,17.625 -37.004,47.775 -33.112,84.78c2.933,27.87 13.587,54.466 33.783,70.812c15.2,12.729 35.667,18.5 60.792,15.858c26.958,-2.841 56.383,-21.716 74.391,-48.091c0.359,-0.967 0.959,-8.421 0.121,-12.025c-0.096,-0.913 -1.562,-1.684 -2.021,-1.638m-96.491,-113.637c20.104,-2.121 34.066,20.896 38.737,47.658c0.146,1.367 -1.033,3.338 -2.312,4.4c-8.029,2.688 -47.675,7.788 -59.2,8.075c-0.913,0.096 -2.475,-1.583 -2.521,-2.042c-2.6,-33.445 7.475,-56.22 25.296,-58.091m245.308,-32.725c-4.587,0.316 -11.062,-0.146 -20.321,-0.879c-8.779,-0.305 -22.621,-0.717 -30.866,-0.138c-47.2,3.308 -69.2,31.096 -67.017,62.258c1.829,26.121 15.358,41.746 59.483,60.305c24.213,10.275 33.004,17.487 34,31.691c0.963,13.75 -9.887,23.263 -25.925,24.384c-6.871,0.479 -16.621,-0.675 -24.246,-4.288c-13.837,-6.858 -23.995,-20.425 -31.687,-44.75c-2.779,-0.267 -10.413,2.571 -11.233,4.008c1.166,10.055 6.229,42.85 8.833,53.721c13.154,3.754 33.183,6.963 53.346,5.55c41.7,-2.925 74.887,-28.812 72.321,-65.466c-1.638,-23.375 -12.292,-37.367 -50.205,-52.667c-38.829,-15.246 -44.908,-23.108 -45.875,-36.854c-0.962,-13.742 9.396,-23.684 24.059,-24.713c7.791,-0.541 14.337,0.842 20.516,3.634c11.913,5.608 17.425,18.579 21.459,36.712c1.925,1.25 9.687,0.246 11.425,-1.258c-0.371,-18.396 -0.25,-36.363 1.933,-51.25m155.133,15.675c0.071,-7.367 1.35,-18.013 2.342,-25.429c-9.125,1.404 -33.367,4.058 -48.962,4.879c-0.917,0.05 -2.392,-1.717 -2.488,-3.55c-1.717,-32.575 -1.833,-52.346 -1.371,-61.113c-1.837,0.096 -6.425,0.342 -7.754,1.329c-6.104,6.3 -28.829,20.38 -41.892,25.663l2.025,38.533c0.075,1.375 -1.229,2.834 -1.666,3.309c-3.138,1.545 -12.671,3.887 -18.592,5.116c-1.692,2.85 -3.479,12.604 -3.329,15.354c6.442,0.125 16.558,0.055 22.112,0.68c1.863,0.366 2.9,2.604 2.996,4.441c0.988,18.817 2.746,61.042 4.004,84.9c1.442,27.521 2.092,39.909 9.146,51.5c8.567,14.267 24.988,20.379 43.796,19.396c16.517,-0.867 37.279,-8.479 49.229,-26.129c0.779,-2.8 0.342,-11.054 -0.191,-12.408c-7.534,5.454 -14.8,7.216 -24.892,7.745c-12.388,0.65 -21.008,-5.795 -24.288,-15.741c-2.2,-6.788 -3.208,-17.309 -4.008,-32.45c-1.133,-21.563 -2.771,-61.5 -3.808,-81.225c-0.046,-0.913 1.237,-2.825 1.691,-2.846c15.6,-0.825 32.138,-1.229 45.9,-1.954m126.134,37.091c0.066,3.675 0.558,5.505 0.175,9.646c-0.438,1.384 -2.217,4.634 -3.592,5.117c-17.312,8.117 -72.2,22.408 -84.462,30.429c-2.675,4.642 -7.009,19.425 -6.905,25.396c0.309,17.45 7.021,33.417 17.296,42.883c7.471,6.838 17.192,10.8 26.838,10.629c8.266,-0.141 28.346,-7.925 49.658,-23.92c0.463,-0.009 2.296,-0.042 2.308,0.412c0.505,2.754 1.492,6.871 2.455,9.154c3.354,7.75 11.258,13.2 25.954,12.942c15.162,-0.267 33.425,-6.638 44.254,-18.317c1.346,-1.4 2.521,-12.908 2.037,-14.279c-5.937,1.946 -9.141,2.458 -14.654,2.554c-11.487,0.204 -14.883,-10.3 -15.029,-18.571c-0.321,-18.37 0.508,-49.17 0.125,-71.216c-0.275,-15.617 -2.887,-33.488 -11.85,-46.659c-10.371,-14.979 -27.554,-25.241 -50.517,-24.837c-12.858,0.225 -43.883,12.717 -65.187,29.171c-2.717,2.346 -8.796,22.666 -9.188,26.354c0.055,3.212 10.73,9 12.538,7.592c3.079,-7.867 11.958,-25.484 16.037,-28.771c3.163,-2.817 11.384,-5.713 21.03,-5.884c12.858,-0.225 25.804,4.142 33.354,15.492c5.183,7.258 7.175,15.958 7.325,24.683m0.05,28.942c0.141,7.813 0.666,37.667 0.45,51.454c0.079,4.592 -1.709,7.379 -3.513,9.25c-4.083,2.829 -9.583,3.846 -14.175,3.925c-16.075,0.284 -30.987,-11.4 -31.375,-33.446c-0.079,-4.595 2.05,-14.279 3.4,-15.683c5.442,-4.229 29.196,-12 43.804,-17.308c0.455,-0.471 1.4,1.35 1.409,1.808m83.171,-77.733c6.45,0.808 13.354,1.608 17.054,2.916c6.937,2.638 7.933,7.213 8.571,16.85c0.837,21.58 1.208,68.896 2.062,91.4c0.575,32.609 14.35,58.171 52.938,57.492c17.445,-0.308 37.483,-10.387 59.195,-30.067c1.359,-0.941 2.763,0.417 2.78,1.334c0.12,6.891 0.812,20.204 1.82,25.312c0.496,1.829 1.434,3.192 2.825,3.625c10.084,-1.091 52.592,-13.862 70.384,-21.071c1.337,-2.32 1.662,-10.137 1.621,-12.433c-7.342,0.588 -11.475,0.663 -17.459,0.308c-6.896,-0.341 -9.283,-5.354 -9.941,-16.825l-1.638,-93.241c-0.317,-17.45 -0.258,-40.429 0.533,-47.792c-12.816,2.979 -49.483,7.763 -83.479,8.363c-1.337,1.858 -2.146,8.304 -1.171,11.504c10.13,1.2 18.871,1.966 25.805,4.137c6.466,2.188 7.962,8.592 8.05,13.646c1.708,44.992 2.566,93.683 2.241,101.5c-0.396,3.225 -1.721,6.463 -3.971,9.258c-7.245,6.1 -16.833,9.488 -26.937,9.663c-19.292,0.342 -28.646,-9.146 -32.083,-21.946c-2.455,-8.687 -2.738,-24.767 -3.221,-52.325c-0.85,-48.225 -0.334,-71.208 0.854,-82.254c-18.746,5.383 -55.463,7.867 -75.204,8.675c-1.354,1.4 -2.134,9.225 -1.629,11.971m363.941,-23.134c-9.187,-0.158 -18.916,4.721 -25.441,10.121c-10.255,8.096 -18.213,16.688 -27.113,26.642c-0.467,0.446 -2.304,0.417 -2.283,-0.958c0.129,-7.35 1.887,-29.375 2.471,-36.255c0.012,-0.92 -1.8,-2.329 -2.721,-2.345c-16.229,8.908 -49.904,16.595 -67.842,17.662c-1.396,0.896 -2.433,7.767 -2.004,9.617c19.621,7.687 21.358,13.696 21.717,19.208c0.8,6.908 0.545,21.604 0.262,38.142c-0.533,30.771 -1.592,65.216 -2.65,73.466c-0.633,10.1 -3.454,13.725 -7.621,15.488c-5.091,1.754 -11.529,2.558 -17.512,2.912c-0.946,1.825 -1.092,10.092 -0.209,12.021c9.655,0.167 32.18,-0.821 49.171,-0.525c26.184,0.45 49.584,2.234 58.771,2.396c2.329,-1.879 2.933,-10.133 2.046,-11.987c-8.25,-1.067 -16.042,-2.113 -23.363,-4.084c-8.212,-2.896 -9.979,-7.058 -10.245,-18.55c-0.796,-6.908 -0.209,-67.546 0.691,-92.8c0.071,-4.133 1.521,-8.246 3.396,-10.508c4.696,-5.896 10.729,-9.463 17.617,-9.342c11.946,0.204 24.212,8.225 32.779,17.563c0.917,0.021 4.6,-0.379 5.079,-1.288c6.563,-7.7 17.042,-29.112 18.071,-35.525c0.492,-1.833 0.587,-7.341 0.154,-8.729c-3.55,-7.412 -12.2,-12.15 -23.221,-12.342m136.009,76.855c-0.13,3.675 0.262,5.525 -0.338,9.641c-0.508,1.363 -2.454,4.513 -3.846,4.925c-17.716,7.196 -73.271,18.596 -85.941,25.967c-2.913,4.5 -8.017,19.029 -8.225,24.996c-0.605,17.446 5.266,33.741 15.029,43.733c7.104,7.217 16.6,11.688 26.241,12.021c8.271,0.287 28.717,-6.433 50.842,-21.296c0.458,0.017 2.292,0.083 2.275,0.542c0.367,2.771 1.142,6.933 1.979,9.262c2.946,7.917 10.554,13.775 25.246,14.284c15.146,0.529 33.721,-4.88 45.146,-15.971c1.417,-1.334 3.196,-12.763 2.783,-14.154c-6.029,1.629 -9.258,1.975 -14.771,1.783c-11.47,-0.4 -14.32,-11.071 -14.037,-19.338c0.646,-18.354 3.087,-49.07 3.85,-71.108c0.546,-15.612 -1.121,-33.592 -9.388,-47.212c-9.575,-15.505 -26.191,-26.65 -49.15,-27.45c-12.85,-0.442 -44.479,10.404 -66.616,25.72c-2.838,2.2 -9.967,22.18 -10.554,25.838c-0.109,3.212 10.241,9.542 12.125,8.233c3.487,-7.696 13.279,-24.816 17.52,-27.887c3.313,-2.646 11.659,-5.113 21.3,-4.775c12.855,0.446 25.555,5.483 32.5,17.216c4.805,7.521 6.334,16.309 6.03,25.03m-1.467,28.908c-0.271,7.804 -1.308,37.646 -2.25,51.404c-0.158,4.592 -2.092,7.283 -3.992,9.058c-4.225,2.609 -9.771,3.33 -14.362,3.171c-16.067,-0.554 -30.338,-13.004 -29.575,-35.041c0.162,-4.592 2.796,-14.15 4.216,-15.48c5.65,-3.941 29.78,-10.45 44.646,-14.995c0.475,-0.442 1.329,1.425 1.317,1.883m252.146,69.604c1.496,-1.729 3.45,-9.887 3.183,-12.667c-0.362,-1.404 -1.221,-2.383 -2.133,-2.445c-16.084,12.687 -34.309,16.479 -49.429,15.425c-18.33,-1.28 -36.28,-8.055 -49.142,-28.296c-9.054,-15.367 -12.717,-35.429 -11.313,-55.592c2.43,-34.825 18.325,-58.125 43.071,-56.396c22.921,1.6 39.284,24.388 47.746,35.109c1.35,0.554 4.096,0.745 5.504,0.383c5.234,-2.4 16.667,-14.496 20.417,-22.063c1.079,-2.225 1.333,-5.891 1,-7.754c-2.296,-6.612 -10.721,-11.341 -14.258,-13.433c-9.371,-4.338 -19.284,-7.325 -36.246,-8.513c-20.163,-1.404 -48.296,5.842 -65.5,14.767c-30.513,14.908 -48.267,44.988 -50.409,75.692c-1.666,23.829 2.688,47.158 14.371,64.554c14.604,21.737 35.004,32.908 63.879,34.925c22.455,1.567 53.838,-5.996 79.259,-33.696m109.921,-143.029c-18.45,5.304 -53.292,8.258 -80.871,7.233c-1.488,1.254 -2.667,9.45 -1.042,11.896c7.663,2.058 14.825,4.525 19.2,7.213c5.217,3.683 6.479,10.254 6.421,16.241c0.075,20.296 -8.117,103.504 -12.363,152.092c-5.075,58.121 -15.725,79.783 -45.079,92.9c-0.533,0.875 -0.737,3.162 -0.358,4.117c1.667,2.916 5.125,5.52 11.037,6.5c20.48,-7.434 64.484,-41.405 79.563,-92.655c5.229,-17.529 7.129,-34.037 9.583,-56.879l13.909,-148.658Zm2.85,-64.308c0.441,-5.034 0.041,-11.063 -2.009,-14.013c-1.208,-1.95 -6.883,-5.671 -16.033,-6.467c-11.438,-1.004 -25.608,2.834 -30.667,7.925c-2.987,2.509 -4.283,12.075 -3.646,15.363c0.492,10.183 4.43,17.908 12.309,22.746c3.916,2.646 24.912,-0.129 27.354,-1.763c7.312,-4.429 11.929,-15.096 12.692,-23.791m134.095,149.9c-0.387,3.658 -0.125,5.529 -1.008,9.595c-0.604,1.321 -2.767,4.33 -4.187,4.638c-18.175,5.946 -74.392,13.442 -87.542,19.912c-3.221,4.28 -9.325,18.421 -9.946,24.363c-1.825,17.358 2.892,34.025 11.942,44.675c6.583,7.692 15.741,12.812 25.337,13.821c8.225,0.862 29.1,-4.413 52.209,-17.696c0.458,0.05 2.279,0.242 2.233,0.696c0.171,2.791 0.65,7 1.321,9.379c2.391,8.104 9.566,14.475 24.187,16.008c15.084,1.588 33.984,-2.512 46.15,-12.783c1.517,-1.229 4.084,-12.508 3.767,-13.925c-6.129,1.208 -9.375,1.329 -14.854,0.754c-11.421,-1.2 -13.517,-12.046 -12.654,-20.267c1.92,-18.275 6.5,-48.741 8.804,-70.67c1.629,-15.538 1.212,-33.596 -6.079,-47.755c-8.467,-16.133 -24.267,-28.412 -47.109,-30.812c-12.791,-1.342 -45.108,7.275 -68.258,21.012c-2.983,1.996 -11.488,21.425 -12.329,25.038c-0.334,3.196 9.554,10.237 11.525,9.058c4.008,-7.429 14.966,-23.837 19.412,-26.6c3.488,-2.408 11.996,-4.283 21.596,-3.275c12.792,1.338 25.104,7.254 31.213,19.442c4.266,7.837 5.175,16.708 4.27,25.392m-3.479,28.733c-0.821,7.771 -3.937,37.462 -5.833,51.121c-0.475,4.571 -2.592,7.121 -4.613,8.758c-4.395,2.308 -9.979,2.646 -14.545,2.167c-15.984,-1.684 -29.363,-15.092 -27.063,-37.021c0.479,-4.571 3.771,-13.925 5.288,-15.15c5.908,-3.538 30.433,-8.354 45.587,-11.85c0.504,-0.404 1.221,1.517 1.179,1.975"/><path d="M672.506,928.823c-13.354,6.1 -44.245,6.342 -75.704,3.934c-1.308,-0.042 -3.191,-2.738 -3.121,-4.709c3.105,-89.258 4.996,-143.733 6.809,-158.129c0.096,-2.625 2.271,-8.458 4.283,-9.704c6.629,-1.742 13.871,-2.146 18.467,-1.987c58.416,2.029 87.871,43.141 85.904,99.583c-1.55,44.629 -18.621,63.1 -36.638,71.012m-356.708,6.671c-6.012,0.163 -25.804,-2.158 -44.992,-3.766c-21.833,-1.825 -36.391,-3.046 -42.945,-4.267c-1.325,-0.113 -1.88,-1.488 -1,-4.079c12.479,-29.604 39.904,-94.6 55.529,-129.934c0.712,-0.612 2.646,0.221 3.308,0.275c9.083,34.742 25.263,104.055 32.413,137.971c0.554,1.375 -0.992,3.913 -2.313,3.8m555.379,194.742c-28.379,-10.688 -49.275,-23.304 -62.612,-32.404c-60.488,-41.271 -82.059,-111.379 -101.75,-154.021c-0.613,-1.333 -0.521,-3.958 0.812,-4.571c41.921,-14.971 77.817,-45.921 79.629,-97.775c2.05,-59.067 -37.245,-100.512 -114.695,-103.208c-41.342,-1.438 -74.867,-1.292 -116.871,-2.75c-22.313,-0.775 -66.875,-4.296 -82.621,-4.842c-2.017,1.242 -3.771,13.667 -1.229,16.383c11.108,1.705 22.858,4.084 31.316,6.346c13.013,3.738 17.946,13.113 18.617,31.534c-0.346,28.895 -2.129,80.091 -4.225,140.475c-1.35,38.725 -5.317,133.866 -6.629,152.875c-0.3,4.308 0.662,17.291 -7.767,25.437c-3.979,3.842 -8.858,5.554 -12.979,6.346c-17.596,1.212 -31.771,-6.179 -37.25,-9.896c-18.821,-12.762 -20.037,-40.504 -22.787,-50.158c-16.484,-57.792 -62.842,-244.117 -77.48,-299.979c-2.37,-11.525 -5.179,-25.75 -6.445,-34.521c-6.613,-0.554 -14.605,-0.554 -27.842,-1.663c-10.588,-0.887 -20.45,-2.379 -27.729,-2.991c-2.1,9.15 -8.063,24.65 -13.029,36.225c-19.759,44.983 -93.817,205.345 -135.888,285.991c-21.458,41.4 -30.429,45.204 -76.692,47.321c-2.212,2.483 -3.266,15.054 -1.458,17.317c19.3,1.612 41.3,1.458 69.092,3.783c34.404,2.883 61.362,7.133 79.891,8.688c2.155,-1.925 4.534,-14.392 3.434,-17.146c-12.467,-2.371 -21.559,-5.129 -30.659,-7.888c-18.133,-6.187 -18.029,-15.396 -17.254,-24.658c1.154,-13.788 26.075,-64.775 40.742,-96.642c0.883,-2.591 4.471,-5.612 7.112,-5.4c7.996,0.004 23.213,1.279 54.309,3.884c22.496,1.883 43.012,3.6 51.554,4.983c1.983,0.162 4.358,3.696 5.567,5.129c7.616,28.4 22.391,82.717 27.458,109.683c0.992,4.08 0.379,11.359 -8.542,14.496c-6.841,2.088 -19.633,3.688 -33.033,4.559c-2.204,2.479 -2.538,14.45 -1.446,17.316c12.508,0.654 25.95,1.159 44.629,2.275c4.113,0.25 21.559,1.338 48.163,3.492c30.804,2.5 42.558,4.812 73.533,6.796c6.321,0.408 11.546,0.683 15.042,0.862c5.441,0.359 9.391,0.663 10.25,0.729c6.525,0.496 20.104,1.184 50.771,2.059c28.45,1.612 56.9,3.229 85.35,4.837c0.937,-1.521 2.683,-4.825 2.887,-9.366c0.175,-3.942 -0.896,-7.005 -1.587,-8.609c-15.684,-2.521 -22.859,-4.079 -33.292,-6.421c-14.3,-4.433 -18.033,-10.479 -17.892,-33.466c-0.308,-28.934 1.517,-81.438 2.888,-120.821c0.046,-1.308 1.446,-3.888 2.758,-3.842c4.596,0.159 19.054,0.009 24.288,0.846c8.533,0.296 13.625,5.071 17.945,13.104c21.105,35.567 56.209,103.159 80.096,134.209c6.271,8.766 17.692,20.333 30.617,26.695c25.183,12.817 83.521,16.817 119.079,14.767c2.013,-1.246 4.442,-14.421 3.854,-16.404" style="fill-rule:nonzero;"/><path d="M1202.43,733.45c-18.925,6.9 -35.967,9.163 -66.821,9.708l-237.042,4.175c-17.07,0.296 -38.775,-1.287 -56.62,-7.541c-1.321,-0.638 -5.213,2.066 -5.192,3.375c-0.863,25.633 -5.183,78.912 -9.954,105.925c1.366,3.258 15.866,6.291 17.804,4.287c6.854,-21.141 15.667,-42.971 23.942,-57.571c7.641,-13.92 16.07,-19.983 30.495,-21.55c16.405,-0.95 61.709,-1.745 72.884,-1.287c1.971,-0.029 4,3.217 4.021,4.525c1.812,103.092 4.32,245.579 3.345,302.083c-0.766,30.884 -5.204,40.154 -22.862,44.409c-9.146,2.787 -25.525,5.045 -41.917,6.65c-1.937,2.004 -2.387,13.837 0.288,16.525c19.7,-0.35 51.183,-2.867 106.333,-3.842c38.742,-0.683 72.921,0.687 96.563,0.275c2.6,-1.363 3.025,-14.617 1.02,-16.55c-21.058,-2.263 -27.637,-2.804 -38.2,-5.9c-14.525,-4.338 -18.612,-12.808 -20.3,-33.792c-2.687,-40.679 -5.791,-217.312 -7.437,-310.55c-0.033,-1.966 1.237,-4.612 3.196,-5.308c9.833,-0.829 58.425,-1.683 79.454,-0.742c13.158,1.084 20.462,5.546 26.629,19.892c5.496,13.7 9.817,35.292 12.813,56.258c2.016,2.596 17.108,1.675 18.387,-0.321c2.588,-39.454 7.017,-86.166 13.183,-109.262c-0.679,-1.304 -2.691,-3.242 -4.012,-3.871" style="fill-rule:nonzero;"/><path d="M1950.55,960.253c-5.608,-45.63 -33.983,-71.917 -78.983,-93.513c-28.075,-13.087 -50.296,-21.608 -79.263,-36.571c-28.396,-15.696 -45.796,-33.408 -49.558,-64.05c-3.359,-32.666 16.012,-63.5 55.121,-68.304c19.558,-2.408 35.595,-1.067 51.875,7.517c17.658,9.079 27.145,27.1 37.245,66.221c2.2,1.712 14.584,0.191 16.871,-2.734c-2.696,-38.046 -1.816,-68.591 -0.221,-93.271c-28.266,1.488 -56.029,-3.695 -102.308,1.992c-72.35,8.892 -127.267,57.325 -118.292,130.333c7.613,61.921 50.484,87.746 114.45,118.263c61.03,28.225 82.492,46.758 87.063,83.912c4.808,39.109 -19.433,62.605 -53.325,66.771c-22.158,2.725 -44.888,0.879 -63.358,-9.421c-25.463,-13.408 -43.425,-35.683 -61.9,-78.404c-2.855,-1.633 -15.488,3.229 -17.042,6.729c4.6,21.263 22.629,87.2 30.346,96.18c14.75,6.9 56.6,13.662 97.666,8.616c94.509,-11.616 142.034,-71.825 133.613,-140.266" style="fill-rule:nonzero;"/><path d="M1579.45,716.095c-32.75,2.296 -57.787,2.08 -74.816,3.267c-1.738,3.417 -1.617,14.6 0.483,16.425c13.25,1.05 23.821,1.625 33.171,3.604c20.587,2.5 29.096,11.129 31.904,41.871c6.25,51.571 13.083,149.175 12.554,197.933c-0.167,91.525 -48.021,113.309 -96.496,116.705c-60.266,4.225 -96.216,-20.25 -110.95,-61.346c-7.966,-19.85 -12.471,-46.525 -15.333,-77.925c-3.042,-34.021 -9.663,-119.138 -11.888,-169.671c-0.204,-21.717 4.346,-31.908 19.184,-36.238l27.808,-7.216c1.825,-2.109 0.996,-13.9 -1.15,-16.384c-19.654,1.38 -49,5.409 -90.929,8.346c-39.3,2.754 -73.504,3.184 -89.883,4.325c-1.788,2.763 -1.613,14.596 0.491,16.425c11.229,0.529 24.513,2.229 31.859,3.692c15.391,3.529 20.712,13.692 22.65,31.983c6.07,77.259 12.141,192.046 21.858,236.788c13.2,66.225 58.717,114.496 168.767,106.779c89.754,-6.283 152.454,-50.946 152.754,-168.804c1.558,-43.563 -3.25,-121.567 -5.692,-184.596c-0.329,-32.892 3.571,-43.042 20.275,-48.825c7.021,-3.121 16.104,-5.071 25.796,-7.725c1.829,-2.108 1,-13.9 -1.15,-16.379c-14.413,1.008 -33.271,4.304 -71.267,6.966" style="fill-rule:nonzero;"/><path d="M783.838,497.342l18.259,99.141l14.754,-99.725l0.704,-0.012l-0.012,-0.575l99.012,-18.238l-99.592,-14.733l-0.008,-0.462l-0.767,0.016l-18.179,-98.65l-14.696,99.229l-1.554,0.03l0.004,0.42l-99.112,18.267l99.696,14.742l0.012,0.575l1.479,-0.025Z"/><path d="M1031.35,490.186l18.267,99.142l14.754,-99.721l0.7,-0.012l-0.008,-0.575l99.004,-18.242l-99.587,-14.729l-0.009,-0.463l-0.762,0.013l-18.188,-98.65l-14.696,99.229l-1.55,0.029l0.005,0.425l-99.113,18.263l99.696,14.75l0.012,0.57l1.475,-0.029Z"/><path d="M1278.87,483.037l18.259,99.137l14.754,-99.721l0.704,-0.008l-0.008,-0.579l99.008,-18.238l-99.592,-14.733l-0.008,-0.462l-0.762,0.016l-18.188,-98.65l-14.7,99.225l-1.55,0.034l0.008,0.42l-99.112,18.267l99.696,14.742l0.012,0.575l1.479,-0.025Z"/></svg>